<svg width="44" height="28" viewBox="0 0 44 28" fill="none" xmlns="http://www.w3.org/2000/svg">
<path d="M20.72 16C20.72 13.7333 21.1733 11.76 22.08 10.08C22.9867 8.37333 24.24 7.05333 25.84 6.12C27.4667 5.18667 29.32 4.72 31.4 4.72C34.0933 4.72 36.3067 5.37333 38.04 6.68C39.8 7.98667 40.96 9.8 41.52 12.12H37.6C37.2267 10.7867 36.4933 9.73333 35.4 8.96C34.3333 8.18667 33 7.8 31.4 7.8C29.32 7.8 27.64 8.52 26.36 9.96C25.08 11.3733 24.44 13.3867 24.44 16C24.44 18.64 25.08 20.68 26.36 22.12C27.64 23.56 29.32 24.28 31.4 24.28C33 24.28 34.3333 23.9067 35.4 23.16C36.4667 22.4133 37.2 21.3467 37.6 19.96H41.52C40.9333 22.2 39.76 24 38 25.36C36.24 26.6933 34.04 27.36 31.4 27.36C29.32 27.36 27.4667 26.8933 25.84 25.96C24.24 25.0267 22.9867 23.7067 22.08 22C21.1733 20.2933 20.72 18.2933 20.72 16Z" fill="url(#paint0_linear_1_232)"/>
<path d="M10.84 27.36C9.16 27.36 7.65333 27.08 6.32 26.52C4.98667 25.9333 3.93333 25.1333 3.16 24.12C2.38667 23.08 1.96 21.8933 1.88 20.56H5.64C5.74667 21.6533 6.25333 22.5467 7.16 23.24C8.09333 23.9333 9.30667 24.28 10.8 24.28C12.1867 24.28 13.28 23.9733 14.08 23.36C14.88 22.7467 15.28 21.9733 15.28 21.04C15.28 20.08 14.8533 19.3733 14 18.92C13.1467 18.44 11.8267 17.9733 10.04 17.52C8.41333 17.0933 7.08 16.6667 6.04 16.24C5.02667 15.7867 4.14667 15.1333 3.4 14.28C2.68 13.4 2.32 12.2533 2.32 10.84C2.32 9.72 2.65333 8.69333 3.32 7.76C3.98667 6.82667 4.93333 6.09333 6.16 5.56C7.38667 5 8.78667 4.72 10.36 4.72C12.7867 4.72 14.7467 5.33333 16.24 6.56C17.7333 7.78667 18.5333 9.46667 18.64 11.6H15C14.92 10.4533 14.4533 9.53333 13.6 8.84C12.7733 8.14667 11.6533 7.8 10.24 7.8C8.93333 7.8 7.89333 8.08 7.12 8.64C6.34667 9.2 5.96 9.93333 5.96 10.84C5.96 11.56 6.18667 12.16 6.64 12.64C7.12 13.0933 7.70667 13.4667 8.4 13.76C9.12 14.0267 10.1067 14.3333 11.36 14.68C12.9333 15.1067 14.2133 15.5333 15.2 15.96C16.1867 16.36 17.0267 16.9733 17.72 17.8C18.44 18.6267 18.8133 19.7067 18.84 21.04C18.84 22.24 18.5067 23.32 17.84 24.28C17.1733 25.24 16.2267 26 15 26.56C13.8 27.0933 12.4133 27.36 10.84 27.36Z" fill="white"/>
<path d="M6.32 26.52L6.15888 26.8862L6.16511 26.8888L6.32 26.52ZM3.16 24.12L2.83899 24.3587L2.84202 24.3627L3.16 24.12ZM1.88 20.56V20.16H1.45528L1.48072 20.584L1.88 20.56ZM5.64 20.56L6.03811 20.5212L6.00287 20.16H5.64V20.56ZM7.16 23.24L6.917 23.5578L6.92147 23.5611L7.16 23.24ZM14 18.92L13.8038 19.2687L13.8123 19.2732L14 18.92ZM10.04 17.52L9.93851 17.9069L9.94163 17.9077L10.04 17.52ZM6.04 16.24L5.87657 16.6053L5.88818 16.6101L6.04 16.24ZM3.4 14.28L3.09025 14.5334L3.09897 14.5434L3.4 14.28ZM3.32 7.76L2.99451 7.5275H2.99451L3.32 7.76ZM6.16 5.56L6.31952 5.92689L6.32612 5.92387L6.16 5.56ZM16.24 6.56L15.9861 6.86909L16.24 6.56ZM18.64 11.6V12H19.0605L19.0395 11.58L18.64 11.6ZM15 11.6L14.601 11.6278L14.6269 12H15V11.6ZM13.6 8.84L13.3429 9.14651L13.3478 9.15044L13.6 8.84ZM7.12 8.64L6.8854 8.31602H6.8854L7.12 8.64ZM6.64 12.64L6.3492 12.9146L6.35704 12.923L6.36535 12.9308L6.64 12.64ZM8.4 13.76L8.24414 14.1284L8.25253 14.1319L8.26107 14.1351L8.4 13.76ZM11.36 14.68L11.2534 15.0655L11.2553 15.0661L11.36 14.68ZM15.2 15.96L15.0412 16.3272L15.0497 16.3307L15.2 15.96ZM17.72 17.8L17.4135 18.0571L17.4184 18.0627L17.72 17.8ZM18.84 21.04H19.2401L19.2399 21.032L18.84 21.04ZM17.84 24.28L17.5115 24.0518V24.0518L17.84 24.28ZM15 26.56L15.1625 26.9255L15.1661 26.9239L15 26.56ZM10.84 27.36V26.96C9.20469 26.96 7.75191 26.6876 6.47489 26.1512L6.32 26.52L6.16511 26.8888C7.55476 27.4724 9.11531 27.76 10.84 27.76V27.36ZM6.32 26.52L6.4811 26.1539C5.20071 25.5905 4.20475 24.8296 3.47798 23.8773L3.16 24.12L2.84202 24.3627C3.66192 25.437 4.77262 26.2762 6.15891 26.8861L6.32 26.52ZM3.16 24.12L3.48099 23.8813C2.75556 22.9058 2.35477 21.7942 2.27928 20.536L1.88 20.56L1.48072 20.584C1.56523 21.9924 2.01777 23.2542 2.83902 24.3587L3.16 24.12ZM1.88 20.56V20.96H5.64V20.56V20.16H1.88V20.56ZM5.64 20.56L5.24189 20.5988C5.3598 21.8074 5.92607 22.8 6.91702 23.5577L7.16 23.24L7.40298 22.9223C6.5806 22.2934 6.13353 21.4993 6.03811 20.5212L5.64 20.56ZM7.16 23.24L6.92147 23.5611C7.94118 24.3186 9.2453 24.68 10.8 24.68V24.28V23.88C9.36804 23.88 8.24549 23.5481 7.39853 22.9189L7.16 23.24ZM10.8 24.28V24.68C12.2421 24.68 13.4315 24.3612 14.3234 23.6774L14.08 23.36L13.8366 23.0426C13.1285 23.5854 12.1312 23.88 10.8 23.88V24.28ZM14.08 23.36L14.3234 23.6774C15.213 22.9954 15.68 22.1088 15.68 21.04H15.28H14.88C14.88 21.8378 14.547 22.4979 13.8366 23.0426L14.08 23.36ZM15.28 21.04H15.68C15.68 20.4992 15.5592 20.0085 15.3024 19.5833C15.0457 19.1581 14.6672 18.8215 14.1877 18.5668L14 18.92L13.8123 19.2732C14.1861 19.4718 14.4476 19.7152 14.6176 19.9967C14.7875 20.2781 14.88 20.6208 14.88 21.04H15.28ZM14 18.92L14.1961 18.5714C13.2959 18.065 11.9348 17.5881 10.1384 17.1323L10.04 17.52L9.94163 17.9077C11.7186 18.3586 12.9974 18.815 13.8039 19.2686L14 18.92ZM10.04 17.52L10.1415 17.1331C8.52444 16.7089 7.20955 16.2875 6.19182 15.8699L6.04 16.24L5.88818 16.6101C6.95045 17.0459 8.30223 17.4777 9.93852 17.9069L10.04 17.52ZM6.04 16.24L6.20335 15.8749C5.24386 15.4456 4.41052 14.8274 3.70103 14.0166L3.4 14.28L3.09897 14.5434C3.88281 15.4392 4.80947 16.1277 5.87665 16.6051L6.04 16.24ZM3.4 14.28L3.70958 14.0267C3.06116 13.2342 2.72 12.1841 2.72 10.84H2.32H1.92C1.92 12.3226 2.29884 13.5658 3.09042 14.5333L3.4 14.28ZM2.32 10.84H2.72C2.72 9.80549 3.02604 8.85974 3.64549 7.99249L3.32 7.76L2.99451 7.5275C2.28063 8.52693 1.92 9.63451 1.92 10.84H2.32ZM3.32 7.76L3.64549 7.99249C4.26345 7.12736 5.14811 6.43612 6.31949 5.92683L6.16 5.56L6.00051 5.19317C4.71855 5.75054 3.70988 6.52598 2.99451 7.5275L3.32 7.76ZM6.16 5.56L6.32612 5.92387C7.49265 5.39133 8.8345 5.12 10.36 5.12V4.72V4.32C8.73883 4.32 7.28068 4.60867 5.99388 5.19613L6.16 5.56ZM10.36 4.72V5.12C12.7183 5.12 14.5811 5.71496 15.9861 6.86909L16.24 6.56L16.4939 6.25091C14.9123 4.95171 12.855 4.32 10.36 4.32V4.72ZM16.24 6.56L15.9861 6.86909C17.3826 8.01622 18.1388 9.58602 18.2405 11.62L18.64 11.6L19.0395 11.58C18.9279 9.34731 18.0841 7.55711 16.4939 6.25091L16.24 6.56ZM18.64 11.6V11.2H15V11.6V12H18.64V11.6ZM15 11.6L15.399 11.5722C15.3117 10.3207 14.7958 9.29621 13.8522 8.52955L13.6 8.84L13.3478 9.15044C14.1109 9.77046 14.5283 10.586 14.601 11.6278L15 11.6ZM13.6 8.84L13.857 8.53352C12.9386 7.76319 11.7178 7.4 10.24 7.4V7.8V8.2C11.5889 8.2 12.6081 8.53015 13.343 9.14647L13.6 8.84ZM10.24 7.8V7.4C8.8795 7.4 7.74806 7.69133 6.8854 8.31602L7.12 8.64L7.3546 8.96398C8.03861 8.46866 8.98716 8.2 10.24 8.2V7.8ZM7.12 8.64L6.8854 8.31602C6.01466 8.94655 5.56 9.79727 5.56 10.84H5.96H6.36C6.36 10.0694 6.67867 9.45344 7.3546 8.96398L7.12 8.64ZM5.96 10.84H5.56C5.56 11.652 5.8191 12.3534 6.3492 12.9146L6.64 12.64L6.93081 12.3653C6.55424 11.9666 6.36 11.468 6.36 10.84H5.96ZM6.64 12.64L6.36535 12.9308C6.88451 13.4211 7.51299 13.8191 8.24414 14.1284L8.4 13.76L8.55586 13.3916C7.90034 13.1143 7.35549 12.7655 6.91465 12.3492L6.64 12.64ZM8.4 13.76L8.26107 14.1351C8.99645 14.4075 9.99547 14.7176 11.2534 15.0655L11.36 14.68L11.4666 14.2945C10.2179 13.9491 9.24355 13.6459 8.53893 13.3849L8.4 13.76ZM11.36 14.68L11.2553 15.0661C12.8186 15.49 14.0786 15.9109 15.0412 16.3271L15.2 15.96L15.3588 15.5929C14.3481 15.1558 13.0481 14.7233 11.4647 14.2939L11.36 14.68ZM15.2 15.96L15.0497 16.3307C15.975 16.7058 16.7616 17.2798 17.4135 18.057L17.72 17.8L18.0265 17.543C17.2917 16.6669 16.3984 16.0142 15.3503 15.5893L15.2 15.96ZM17.72 17.8L17.4184 18.0627C18.0642 18.8042 18.4149 19.7874 18.4401 21.048L18.84 21.04L19.2399 21.032C19.2118 19.6259 18.8158 18.4491 18.0216 17.5373L17.72 17.8ZM18.84 21.04H18.44C18.44 22.1608 18.1303 23.1607 17.5115 24.0518L17.84 24.28L18.1685 24.5082C18.883 23.4793 19.24 22.3192 19.24 21.04H18.84ZM17.84 24.28L17.5115 24.0518C16.8917 24.9443 16.0054 25.6613 14.8339 26.1961L15 26.56L15.1661 26.9239C16.4479 26.3387 17.455 25.5357 18.1685 24.5082L17.84 24.28ZM15 26.56L14.8375 26.1945C13.6978 26.701 12.3683 26.96 10.84 26.96V27.36V27.76C12.4584 27.76 13.9022 27.4856 15.1625 26.9255L15 26.56Z" fill="url(#paint1_linear_1_232)"/>
<defs>
<linearGradient id="paint0_linear_1_232" x1="31.5" y1="1" x2="31.5" y2="26" gradientUnits="userSpaceOnUse">
<stop offset="0.221154" stop-color="#96C94E"/>
<stop offset="0.605769" stop-color="#609D4F"/>
<stop offset="0.966346" stop-color="#27754D"/>
</linearGradient>
<linearGradient id="paint1_linear_1_232" x1="9.5" y1="0" x2="9.5" y2="27" gradientUnits="userSpaceOnUse">
<stop offset="0.221154" stop-color="#96C94E"/>
<stop offset="0.620192" stop-color="#609D4F"/>
<stop offset="0.975962" stop-color="#27754D"/>
</linearGradient>
</defs>
</svg>
